<svg width="810" height="811" viewBox="0 0 810 811" fill="none" xmlns="http://www.w3.org/2000/svg">
<circle cx="405" cy="406" r="405" fill="#0A1634"/>
<mask id="mask0_456_3892" style="mask-type:alpha" maskUnits="userSpaceOnUse" x="0" y="1" width="810" height="811">
<circle cx="405" cy="406" r="405" fill="#0A1634"/>
</mask>
<g mask="url(#mask0_456_3892)">
<line x1="-60" y1="405" x2="917" y2="405" stroke="#E4E4E4" stroke-opacity="0.8" stroke-width="2" stroke-dasharray="3 3"/>
<line x1="406" y1="-94.9998" x2="406" y2="837" stroke="#E4E4E4" stroke-opacity="0.8" stroke-width="2" stroke-dasharray="3 3"/>
<line x1="70.7071" y1="70.2931" x2="741.751" y2="741.338" stroke="#E4E4E4" stroke-opacity="0.8" stroke-width="2" stroke-dasharray="3 3"/>
<line x1="740.707" y1="71.7074" x2="69.6627" y2="742.752" stroke="#E4E4E4" stroke-opacity="0.8" stroke-width="2" stroke-dasharray="3 3"/>
</g>
<mask id="mask1_456_3892" style="mask-type:alpha" maskUnits="userSpaceOnUse" x="0" y="0" width="810" height="811">
<circle cx="405" cy="405.5" r="405" fill="white"/>
</mask>
<g mask="url(#mask1_456_3892)">
<path d="M686.711 552.566H684.855V550.887H680.422V549.441H684.855V547.547H680.637C680.103 548.888 679.191 550.011 677.902 550.916C676.62 551.814 674.999 552.495 673.039 552.957L672.395 551.434C674.471 550.978 676.079 550.281 677.219 549.344C678.365 548.406 679.012 547.286 679.162 545.984H673.312V544.461H681.203C681.203 545.021 681.154 545.561 681.057 546.082H684.855V543.66H686.711V552.566ZM686.711 557.742H677.141V559.5H687.238V560.984H675.305V556.336H684.855V554.773H675.266V553.309H686.711V557.742ZM704.083 561.16H702.306V552.176H700.216V560.301H698.458V543.992H700.216V550.613H702.306V543.66H704.083V561.16ZM694.279 548.289C694.279 549.357 694.415 550.366 694.689 551.316C694.962 552.267 695.376 553.113 695.929 553.855C696.489 554.591 697.182 555.171 698.009 555.594L696.915 557.02C696.076 556.564 695.363 555.945 694.777 555.164C694.191 554.383 693.738 553.475 693.419 552.439C693.113 553.611 692.664 554.64 692.072 555.525C691.486 556.411 690.757 557.111 689.884 557.625L688.732 556.219C689.975 555.516 690.91 554.467 691.535 553.074C692.166 551.681 692.482 550.086 692.482 548.289V547.156H689.201V545.652H697.326V547.156H694.279V548.289Z" fill="white"/>
<path d="M504.73 719.484H492.543V711.223H504.574V712.746H494.379V717.961H504.73V719.484ZM506.566 724.855H490.551V723.312H506.566V724.855ZM521.029 716.496H523.841V718.059H521.029V727.199H519.193V709.66H521.029V716.496ZM516.087 717.668H509.955V721.457C511.576 721.451 512.975 721.408 514.154 721.33C515.339 721.245 516.537 721.092 517.747 720.871L517.923 722.375C516.628 722.616 515.348 722.782 514.085 722.873C512.829 722.958 511.315 723.007 509.544 723.02H508.119V716.164H514.251V712.746H508.08V711.242H516.087V717.668ZM538.733 727.199H536.878V709.66H538.733V727.199ZM529.378 710.969C530.244 710.969 531.018 711.223 531.702 711.73C532.386 712.232 532.919 712.948 533.304 713.879C533.694 714.803 533.89 715.878 533.89 717.102C533.89 718.332 533.694 719.413 533.304 720.344C532.919 721.275 532.386 721.994 531.702 722.502C531.018 723.003 530.244 723.254 529.378 723.254C528.499 723.254 527.718 723.003 527.034 722.502C526.35 721.994 525.813 721.278 525.423 720.354C525.039 719.423 524.847 718.339 524.847 717.102C524.847 715.871 525.039 714.794 525.423 713.869C525.813 712.938 526.35 712.222 527.034 711.721C527.718 711.219 528.499 710.969 529.378 710.969ZM529.378 712.629C528.837 712.629 528.359 712.811 527.942 713.176C527.532 713.54 527.213 714.061 526.985 714.738C526.757 715.409 526.643 716.197 526.643 717.102C526.643 718.013 526.757 718.807 526.985 719.484C527.213 720.161 527.532 720.682 527.942 721.047C528.359 721.411 528.837 721.594 529.378 721.594C529.912 721.594 530.384 721.411 530.794 721.047C531.204 720.682 531.523 720.161 531.751 719.484C531.979 718.807 532.093 718.013 532.093 717.102C532.093 716.197 531.979 715.409 531.751 714.738C531.523 714.061 531.204 713.54 530.794 713.176C530.384 712.811 529.912 712.629 529.378 712.629ZM557.102 724.895H541.086V723.371H557.102V724.895ZM544.778 714.016H553.371V710.871H555.207V720.051H542.922V710.871H544.778V714.016ZM553.371 718.586V715.48H544.778V718.586H553.371Z" fill="white"/>
<path d="M281.479 708.703H284.038V710.227H281.479V714.23H279.624V704.602H281.479V708.703ZM281.479 719.113H272.026V720.578H282.085V721.984H270.21V717.805H279.643V716.438H270.17V715.051H281.479V719.113ZM278.178 707.609H267.749V706.145H272.045V704.504H273.901V706.145H278.178V707.609ZM272.963 708.273C273.81 708.273 274.552 708.391 275.19 708.625C275.835 708.853 276.329 709.185 276.674 709.621C277.026 710.051 277.202 710.559 277.202 711.145C277.202 711.73 277.026 712.238 276.674 712.668C276.329 713.098 275.838 713.426 275.2 713.654C274.562 713.882 273.816 713.996 272.963 713.996C272.104 713.996 271.352 713.882 270.708 713.654C270.07 713.426 269.575 713.098 269.223 712.668C268.878 712.238 268.706 711.73 268.706 711.145C268.706 710.559 268.881 710.051 269.233 709.621C269.585 709.185 270.079 708.853 270.717 708.625C271.362 708.391 272.111 708.273 272.963 708.273ZM272.963 709.602C272.469 709.602 272.032 709.667 271.655 709.797C271.284 709.921 270.997 710.1 270.795 710.334C270.594 710.562 270.496 710.832 270.503 711.145C270.496 711.607 270.714 711.975 271.157 712.248C271.606 712.515 272.208 712.648 272.963 712.648C273.719 712.648 274.321 712.515 274.77 712.248C275.226 711.981 275.457 711.613 275.463 711.145C275.457 710.832 275.35 710.562 275.141 710.334C274.933 710.1 274.64 709.921 274.262 709.797C273.891 709.667 273.458 709.602 272.963 709.602ZM293.978 705.246C294.85 705.253 295.632 705.425 296.322 705.764C297.018 706.096 297.565 706.561 297.962 707.16C298.359 707.753 298.561 708.423 298.568 709.172C298.561 709.927 298.359 710.601 297.962 711.193C297.565 711.786 297.018 712.248 296.322 712.58C295.632 712.912 294.85 713.078 293.978 713.078C293.099 713.078 292.308 712.912 291.605 712.58C290.908 712.248 290.361 711.786 289.964 711.193C289.567 710.601 289.369 709.927 289.369 709.172C289.369 708.423 289.567 707.753 289.964 707.16C290.361 706.561 290.908 706.096 291.605 705.764C292.308 705.425 293.099 705.253 293.978 705.246ZM293.978 706.809C293.444 706.802 292.962 706.896 292.533 707.092C292.109 707.287 291.777 707.567 291.537 707.932C291.296 708.29 291.178 708.703 291.185 709.172C291.178 709.647 291.292 710.067 291.527 710.432C291.768 710.796 292.1 711.079 292.523 711.281C292.953 711.477 293.438 711.574 293.978 711.574C294.512 711.574 294.99 711.473 295.414 711.271C295.837 711.07 296.169 710.79 296.41 710.432C296.65 710.067 296.771 709.647 296.771 709.172C296.771 708.703 296.65 708.29 296.41 707.932C296.169 707.567 295.833 707.287 295.404 707.092C294.981 706.896 294.505 706.802 293.978 706.809ZM303.529 713.566H301.673V704.66H303.529V713.566ZM303.529 718.781H293.88V720.461H304.115V721.945H292.083V717.395H301.693V715.852H292.025V714.367H303.529V718.781Z" fill="white"/>
<path d="M107.017 546.246C107.889 546.253 108.671 546.425 109.361 546.764C110.057 547.096 110.604 547.561 111.001 548.16C111.398 548.753 111.6 549.423 111.607 550.172C111.6 550.927 111.398 551.601 111.001 552.193C110.604 552.786 110.057 553.248 109.361 553.58C108.671 553.912 107.889 554.078 107.017 554.078C106.138 554.078 105.347 553.912 104.644 553.58C103.947 553.248 103.4 552.786 103.003 552.193C102.606 551.601 102.407 550.927 102.407 550.172C102.407 549.423 102.606 548.753 103.003 548.16C103.4 547.561 103.947 547.096 104.644 546.764C105.347 546.425 106.138 546.253 107.017 546.246ZM107.017 547.809C106.483 547.802 106.001 547.896 105.572 548.092C105.148 548.287 104.816 548.567 104.575 548.932C104.335 549.29 104.217 549.703 104.224 550.172C104.217 550.647 104.331 551.067 104.566 551.432C104.807 551.796 105.139 552.079 105.562 552.281C105.991 552.477 106.477 552.574 107.017 552.574C107.551 552.574 108.029 552.473 108.452 552.271C108.876 552.07 109.208 551.79 109.449 551.432C109.689 551.067 109.81 550.647 109.81 550.172C109.81 549.703 109.689 549.29 109.449 548.932C109.208 548.567 108.872 548.287 108.443 548.092C108.019 547.896 107.544 547.802 107.017 547.809ZM116.568 554.566H114.712V545.66H116.568V554.566ZM116.568 559.781H106.919V561.461H117.154V562.945H105.122V558.395H114.732V556.852H105.064V555.367H116.568V559.781ZM133.491 556.07H131.635V551.637H128.374V550.113H131.635V545.66H133.491V556.07ZM127.632 556.559C128.849 556.559 129.9 556.689 130.786 556.949C131.678 557.21 132.361 557.587 132.837 558.082C133.312 558.577 133.55 559.169 133.55 559.859C133.55 560.549 133.312 561.139 132.837 561.627C132.361 562.122 131.681 562.499 130.796 562.76C129.91 563.02 128.856 563.154 127.632 563.16C126.408 563.154 125.35 563.02 124.458 562.76C123.572 562.499 122.892 562.122 122.417 561.627C121.941 561.139 121.707 560.549 121.714 559.859C121.707 559.169 121.941 558.577 122.417 558.082C122.892 557.587 123.572 557.21 124.458 556.949C125.35 556.689 126.408 556.559 127.632 556.559ZM127.632 558.004C126.342 558.004 125.34 558.167 124.624 558.492C123.908 558.811 123.55 559.267 123.55 559.859C123.55 560.25 123.712 560.585 124.038 560.865C124.363 561.139 124.832 561.347 125.444 561.49C126.056 561.633 126.785 561.702 127.632 561.695C128.478 561.702 129.207 561.633 129.819 561.49C130.431 561.347 130.9 561.139 131.225 560.865C131.551 560.585 131.714 560.25 131.714 559.859C131.714 559.267 131.356 558.811 130.639 558.492C129.923 558.167 128.921 558.004 127.632 558.004ZM125.171 548.746C125.171 549.488 125.34 550.208 125.678 550.904C126.017 551.601 126.505 552.223 127.143 552.77C127.781 553.31 128.53 553.727 129.389 554.02L128.432 555.484C127.469 555.146 126.629 554.648 125.913 553.99C125.203 553.326 124.653 552.555 124.262 551.676C123.878 552.672 123.309 553.544 122.553 554.293C121.798 555.035 120.906 555.595 119.878 555.973L118.901 554.488C119.787 554.182 120.558 553.736 121.216 553.15C121.88 552.558 122.387 551.881 122.739 551.119C123.097 550.357 123.276 549.573 123.276 548.766V548.375H119.487V546.871H128.921V548.375H125.171V548.746Z" fill="white"/>
</g>
<g clip-path="url(#clip0_456_3892)">
<path d="M115.57 496.69H118.142C119.089 496.69 119.856 497.462 119.856 498.414V508.759" stroke="#157FD1" stroke-width="1.5" stroke-linecap="round" stroke-linejoin="round"/>
<path d="M126.429 524.276H101.858C99.0174 524.276 96.7148 521.96 96.7148 519.103V486.345C96.7148 483.488 99.0174 481.172 101.858 481.172H136.143C138.984 481.172 141.286 483.488 141.286 486.345V510.22" stroke="white" stroke-width="1.5" stroke-linecap="round"/>
<path d="M129.184 478.55C129.184 478.229 128.926 477.97 128.608 477.97C128.289 477.97 128.031 478.229 128.031 478.55V483.128C128.031 483.448 128.289 483.707 128.608 483.707C128.926 483.707 129.184 483.448 129.184 483.128V478.55Z" stroke="white" stroke-width="0.672414"/>
<path d="M110.149 478.55C110.149 478.229 109.891 477.97 109.572 477.97C109.254 477.97 108.996 478.229 108.996 478.55V483.128C108.996 483.448 109.254 483.707 109.572 483.707C109.891 483.707 110.149 483.448 110.149 483.128V478.55Z" stroke="white" stroke-width="0.672414"/>
</g>
<path d="M536.214 118.291V92.1429C536.214 89.1842 533.815 86.7858 530.857 86.7858H495.142C492.184 86.7858 489.785 89.1842 489.785 92.1429V127.857C489.785 130.816 492.184 133.214 495.142 133.214H521.29" stroke="white" stroke-linecap="round"/>
<path d="M529.516 99.2858H496.48V121.682H529.516V99.2858Z" stroke="black"/>
<path d="M529.072 98.3928H496.929C496.189 98.3928 495.59 98.9924 495.59 99.7321C495.59 100.472 496.189 101.071 496.929 101.071H529.072C529.812 101.071 530.411 100.472 530.411 99.7321C530.411 98.9924 529.812 98.3928 529.072 98.3928Z" fill="#4694FF"/>
<path d="M529.072 108.214H496.929C496.189 108.214 495.59 108.814 495.59 109.554C495.59 110.293 496.189 110.893 496.929 110.893H529.072C529.812 110.893 530.411 110.293 530.411 109.554C530.411 108.814 529.812 108.214 529.072 108.214Z" fill="#4694FF"/>
<path d="M511.929 118.036H496.929C496.189 118.036 495.59 118.635 495.59 119.375C495.59 120.115 496.189 120.714 496.929 120.714H511.929C512.669 120.714 513.268 120.115 513.268 119.375C513.268 118.635 512.669 118.036 511.929 118.036Z" fill="#4694FF"/>
<g clip-path="url(#clip1_456_3892)">
<path d="M685.646 301.931H670.704C667.513 301.931 664.926 299.344 664.926 296.153V261.487C664.926 258.296 667.513 255.709 670.704 255.709H707.495C710.686 255.709 713.273 258.296 713.273 261.487V274.005" stroke="white" stroke-width="1.5" stroke-linecap="round"/>
<path d="M701.404 253.152C701.404 252.794 701.114 252.505 700.757 252.505C700.399 252.505 700.109 252.794 700.109 253.152V258.266C700.109 258.623 700.399 258.913 700.757 258.913C701.114 258.913 701.404 258.623 701.404 258.266V253.152Z" stroke="white" stroke-width="0.672414"/>
<path d="M678.092 253.152C678.092 252.794 677.802 252.505 677.444 252.505C677.087 252.505 676.797 252.794 676.797 253.152V258.266C676.797 258.623 677.087 258.913 677.444 258.913C677.802 258.913 678.092 258.623 678.092 258.266V253.152Z" stroke="white" stroke-width="0.672414"/>
<path d="M713.559 288.45C713.559 296.314 707.876 302.413 701.19 302.413C694.503 302.413 688.82 296.314 688.82 288.45C688.82 280.586 694.503 274.487 701.19 274.487C707.876 274.487 713.559 280.586 713.559 288.45Z" stroke="#4694FF" stroke-width="1.5"/>
<path d="M707.231 288.45H702.15C701.619 288.45 701.188 288.018 701.188 287.487V278.82" stroke="#4694FF" stroke-width="1.2" stroke-linecap="round"/>
</g>
<circle cx="405" cy="406" r="206" fill="#FFFBFB" stroke="#8D8D8D" stroke-width="2"/>
<path d="M290.887 125.709V133.473" stroke="white" stroke-width="1.5" stroke-linecap="round"/>
<path d="M278.609 135.414H303.609" stroke="white" stroke-width="1.5" stroke-linecap="round"/>
<path d="M314.1 107.27V120.352C314.1 123.31 311.702 125.709 308.743 125.709H273.029C270.07 125.709 267.672 123.31 267.672 120.352V96.1283C267.672 93.1696 270.07 90.7711 273.029 90.7711H308.297" stroke="white" stroke-width="1.5" stroke-linecap="round"/>
<path d="M278.386 114.063C278.386 115.717 277.051 117.052 275.41 117.052C273.769 117.052 272.434 115.717 272.434 114.063C272.434 112.409 273.769 111.074 275.41 111.074C277.051 111.074 278.386 112.409 278.386 114.063Z" stroke="#157FD1"/>
<path d="M286.124 104.358C286.124 106.012 284.789 107.347 283.148 107.347C281.507 107.347 280.172 106.012 280.172 104.358C280.172 102.705 281.507 101.369 283.148 101.369C284.789 101.369 286.124 102.705 286.124 104.358Z" stroke="#157FD1"/>
<path d="M295.796 114.063C295.796 115.717 294.461 117.052 292.82 117.052C291.179 117.052 289.844 115.717 289.844 114.063C289.844 112.409 291.179 111.074 292.82 111.074C294.461 111.074 295.796 112.409 295.796 114.063Z" stroke="#157FD1"/>
<path d="M309.339 100.476C309.339 102.13 308.004 103.465 306.363 103.465C304.722 103.465 303.387 102.13 303.387 100.476C303.387 98.8224 304.722 97.4869 306.363 97.4869C308.004 97.4869 309.339 98.8224 309.339 100.476Z" stroke="#157FD1"/>
<path d="M277.344 112.122L281.213 106.299" stroke="#157FD1"/>
<path d="M286.051 106.299L290.887 112.122" stroke="#157FD1"/>
<path d="M295.723 112.122L304.428 102.417" stroke="#157FD1"/>
<path d="M275.66 171.473H259.645V169.91H275.66V171.473ZM274.195 159.364H271.52V165.203H274.137V166.688H261.051V165.203H263.668V159.364H261.012V157.84H274.195V159.364ZM269.703 165.203V159.364H265.504V165.203H269.703ZM292.505 171.571H276.49V170.008H283.54V166.942H278.443V161.375H288.716V158.914H278.404V157.391H290.552V162.86H280.279V165.418H290.962V166.942H285.376V170.008H292.505V171.571ZM304.819 166.707H303.061V162.117H300.62V160.614H303.061V156.531H304.819V166.707ZM298.628 159.91C298.628 160.555 298.755 161.186 299.009 161.805C299.269 162.423 299.653 162.987 300.161 163.494C300.669 163.996 301.284 164.396 302.007 164.696L301.069 166.121C300.294 165.802 299.63 165.36 299.077 164.793C298.524 164.22 298.087 163.563 297.768 162.821C297.443 163.654 296.987 164.39 296.401 165.028C295.822 165.666 295.119 166.16 294.292 166.512L293.296 165.047C294.044 164.748 294.686 164.324 295.22 163.778C295.753 163.231 296.154 162.622 296.421 161.951C296.694 161.281 296.831 160.601 296.831 159.91V159.051H293.725V157.547H301.557V159.051H298.628V159.91ZM308.257 166.844H306.499V156.16H308.257V166.844ZM308.257 173.66H306.421V169.071H296.362V167.567H308.257V173.66ZM324.379 166.961H312.192V157.606H324.203V159.11H314.067V161.473H323.832V162.938H314.067V165.477H324.379V166.961ZM326.196 171.453H310.18V169.93H326.196V171.453Z" fill="white"/>
<path d="M484.488 156.961C485.243 156.955 485.937 157.088 486.568 157.362C487.206 157.635 487.73 158.022 488.141 158.524C488.557 159.018 488.831 159.591 488.961 160.242H492.379V156.16H494.234V165.555H492.379V161.766H488.971C488.847 162.43 488.577 163.016 488.16 163.524C487.75 164.031 487.226 164.425 486.588 164.705C485.956 164.985 485.257 165.125 484.488 165.125C483.603 165.125 482.812 164.953 482.115 164.608C481.419 164.256 480.875 163.771 480.484 163.153C480.094 162.528 479.898 161.818 479.898 161.024C479.898 160.236 480.094 159.533 480.484 158.914C480.882 158.296 481.428 157.814 482.125 157.469C482.822 157.124 483.609 156.955 484.488 156.961ZM484.488 158.504C483.941 158.504 483.453 158.612 483.023 158.826C482.6 159.035 482.268 159.331 482.027 159.715C481.793 160.093 481.676 160.529 481.676 161.024C481.676 161.518 481.793 161.958 482.027 162.342C482.268 162.726 482.6 163.026 483.023 163.24C483.453 163.455 483.941 163.563 484.488 163.563C485.022 163.563 485.497 163.455 485.914 163.24C486.337 163.026 486.666 162.726 486.9 162.342C487.141 161.958 487.262 161.518 487.262 161.024C487.262 160.529 487.145 160.093 486.91 159.715C486.676 159.331 486.347 159.035 485.924 158.826C485.501 158.612 485.022 158.504 484.488 158.504ZM484.664 168.426H492.379V166.395H494.234V173.446H482.828V166.395H484.664V168.426ZM492.379 171.922V169.891H484.664V171.922H492.379ZM512.486 167.703H505.337V173.641H503.521V167.703H496.47V166.199H512.486V167.703ZM510.474 163.973H498.482V157.098H510.474V163.973ZM500.298 162.528H508.619V158.582H500.298V162.528ZM518.296 156.746C519.168 156.753 519.949 156.925 520.64 157.264C521.336 157.596 521.883 158.061 522.28 158.66C522.677 159.253 522.879 159.923 522.886 160.672C522.879 161.427 522.677 162.101 522.28 162.694C521.883 163.286 521.336 163.748 520.64 164.08C519.949 164.412 519.168 164.578 518.296 164.578C517.417 164.578 516.626 164.412 515.923 164.08C515.226 163.748 514.679 163.286 514.282 162.694C513.885 162.101 513.686 161.427 513.686 160.672C513.686 159.923 513.885 159.253 514.282 158.66C514.679 158.061 515.226 157.596 515.923 157.264C516.626 156.925 517.417 156.753 518.296 156.746ZM518.296 158.309C517.762 158.302 517.28 158.397 516.85 158.592C516.427 158.787 516.095 159.067 515.854 159.432C515.613 159.79 515.496 160.203 515.503 160.672C515.496 161.147 515.61 161.567 515.845 161.932C516.085 162.296 516.418 162.58 516.841 162.781C517.27 162.977 517.755 163.074 518.296 163.074C518.83 163.074 519.308 162.974 519.731 162.772C520.155 162.57 520.487 162.29 520.727 161.932C520.968 161.567 521.089 161.147 521.089 160.672C521.089 160.203 520.968 159.79 520.727 159.432C520.487 159.067 520.151 158.787 519.722 158.592C519.298 158.397 518.823 158.302 518.296 158.309ZM527.847 165.067H525.991V156.16H527.847V165.067ZM527.847 170.281H518.198V171.961H528.432V173.446H516.401V168.895H526.011V167.352H516.343V165.867H527.847V170.281ZM536.625 161.317C536.625 162.287 536.821 163.247 537.211 164.198C537.608 165.148 538.155 165.998 538.852 166.746C539.555 167.489 540.349 168.048 541.235 168.426L540.219 169.871C539.197 169.422 538.292 168.745 537.504 167.84C536.716 166.929 536.118 165.884 535.707 164.705C535.297 165.962 534.695 167.088 533.901 168.084C533.113 169.08 532.218 169.826 531.215 170.321L530.141 168.856C531 168.452 531.782 167.85 532.485 167.049C533.188 166.242 533.738 165.334 534.135 164.324C534.539 163.309 534.744 162.306 534.75 161.317V159.461H530.746V157.918H540.61V159.461H536.625V161.317ZM544.672 173.66H542.817V156.16H544.672V173.66Z" fill="white"/>
<path d="M662.738 323.317C662.738 324.235 662.927 325.166 663.305 326.11C663.682 327.054 664.21 327.906 664.887 328.668C665.57 329.43 666.345 330.016 667.211 330.426L666.156 331.871C665.193 331.403 664.333 330.709 663.578 329.791C662.829 328.873 662.253 327.832 661.85 326.666C661.446 327.929 660.85 329.065 660.062 330.074C659.281 331.077 658.396 331.826 657.406 332.321L656.312 330.856C657.178 330.439 657.96 329.827 658.656 329.02C659.359 328.212 659.91 327.308 660.307 326.305C660.704 325.296 660.902 324.3 660.902 323.317V321.461H656.957V319.918H666.547V321.461H662.738V323.317ZM670.277 325.094H673.09V326.656H670.277V335.66H668.422V318.16H670.277V325.094ZM688.04 331.442H686.185V329.762H682.669V328.453H686.185V318.18H688.04V331.442ZM688.47 335.289H675.833V330.153H677.669V333.785H688.47V335.289ZM673.412 326.168C675.69 326.155 677.734 326.116 679.544 326.051C681.361 325.986 683.093 325.849 684.74 325.641L684.857 326.969C683.418 327.203 681.882 327.373 680.247 327.477V330.895H678.392V327.584C677.136 327.63 675.853 327.653 674.544 327.653H673.646L673.412 326.168ZM679.134 318.844C679.981 318.844 680.733 318.974 681.39 319.235C682.048 319.489 682.559 319.85 682.923 320.319C683.288 320.781 683.47 321.318 683.47 321.93C683.47 322.542 683.288 323.079 682.923 323.541C682.559 323.997 682.048 324.352 681.39 324.606C680.733 324.853 679.981 324.977 679.134 324.977C678.275 324.977 677.516 324.853 676.859 324.606C676.201 324.352 675.69 323.997 675.326 323.541C674.961 323.079 674.779 322.542 674.779 321.93C674.779 321.318 674.961 320.781 675.326 320.319C675.69 319.85 676.201 319.489 676.859 319.235C677.516 318.974 678.275 318.844 679.134 318.844ZM679.134 320.231C678.62 320.224 678.164 320.289 677.767 320.426C677.37 320.563 677.064 320.761 676.849 321.022C676.634 321.282 676.53 321.585 676.537 321.93C676.53 322.268 676.634 322.565 676.849 322.819C677.064 323.073 677.367 323.268 677.757 323.405C678.154 323.541 678.613 323.61 679.134 323.61C679.636 323.61 680.078 323.541 680.462 323.405C680.853 323.268 681.156 323.073 681.371 322.819C681.592 322.565 681.706 322.268 681.712 321.93C681.706 321.585 681.592 321.282 681.371 321.022C681.156 320.761 680.853 320.563 680.462 320.426C680.078 320.289 679.636 320.224 679.134 320.231ZM705.393 335.66H703.616V318.16H705.393V335.66ZM701.878 334.801H700.12V329.156H697.581C697.268 330.035 696.829 330.712 696.263 331.188C695.696 331.663 695.042 331.897 694.3 331.891C693.544 331.897 692.88 331.65 692.307 331.149C691.741 330.647 691.302 329.931 690.989 329C690.683 328.063 690.53 326.969 690.53 325.719C690.53 324.469 690.683 323.378 690.989 322.448C691.302 321.517 691.741 320.804 692.307 320.309C692.88 319.808 693.544 319.56 694.3 319.567C695.042 319.56 695.693 319.795 696.253 320.27C696.819 320.739 697.262 321.409 697.581 322.281H700.12V318.492H701.878V334.801ZM694.3 321.305C693.87 321.305 693.499 321.481 693.186 321.832C692.88 322.177 692.643 322.682 692.474 323.346C692.311 324.003 692.229 324.795 692.229 325.719C692.229 326.643 692.311 327.438 692.474 328.102C692.643 328.759 692.88 329.264 693.186 329.615C693.499 329.961 693.87 330.133 694.3 330.133C694.729 330.133 695.1 329.961 695.413 329.615C695.732 329.264 695.976 328.756 696.145 328.092C696.321 327.428 696.409 326.637 696.409 325.719C696.409 324.801 696.321 324.01 696.145 323.346C695.976 322.682 695.732 322.177 695.413 321.832C695.1 321.481 694.729 321.305 694.3 321.305ZM697.962 323.785C698.059 324.378 698.108 325.022 698.108 325.719C698.108 326.409 698.059 327.047 697.962 327.633H700.12V323.785H697.962ZM723.41 322.242H720.93V324.469H723.41V326.031H720.93V328.531H719.075V318.16H720.93V320.719H723.41V322.242ZM720.93 335.66H719.075V330.817H709.368V329.313H720.93V335.66ZM712.102 319.176C712.987 319.176 713.782 319.355 714.485 319.713C715.194 320.065 715.751 320.559 716.155 321.198C716.558 321.829 716.763 322.548 716.77 323.356C716.763 324.163 716.558 324.886 716.155 325.524C715.751 326.155 715.194 326.65 714.485 327.008C713.782 327.36 712.987 327.535 712.102 327.535C711.216 327.535 710.419 327.36 709.709 327.008C709 326.65 708.443 326.155 708.039 325.524C707.642 324.886 707.447 324.163 707.453 323.356C707.447 322.548 707.642 321.829 708.039 321.198C708.443 320.559 709 320.065 709.709 319.713C710.419 319.355 711.216 319.176 712.102 319.176ZM712.102 320.758C711.555 320.758 711.067 320.869 710.637 321.09C710.207 321.305 709.869 321.608 709.621 321.998C709.381 322.389 709.263 322.841 709.27 323.356C709.263 323.877 709.381 324.336 709.621 324.733C709.869 325.123 710.207 325.426 710.637 325.641C711.067 325.856 711.555 325.96 712.102 325.953C712.649 325.96 713.137 325.856 713.567 325.641C714.003 325.426 714.341 325.123 714.582 324.733C714.83 324.336 714.953 323.877 714.953 323.356C714.953 322.841 714.83 322.389 714.582 321.998C714.341 321.601 714.003 321.295 713.567 321.08C713.137 320.865 712.649 320.758 712.102 320.758Z" fill="white"/>
<path fill-rule="evenodd" clip-rule="evenodd" d="M122.37 257.551C121.506 256.975 120.348 256.975 119.484 257.551C117.333 258.987 114.632 260.019 112.023 260.757C108.868 261.649 105.661 262.161 103.3 262.395C103.29 262.396 103.282 262.404 103.282 262.414V262.439V262.464V262.489V262.514V262.539V262.564V262.589V262.615V262.64V262.666V262.692V262.718V262.744V262.77V262.796V262.822V262.849V262.875V262.902V262.929V262.955V262.982V263.009V263.036V263.064V263.091V263.119V263.146V263.174V263.202V263.229V263.257V263.285V263.314V263.342V263.37V263.399V263.427V263.456V263.485V263.514V263.543V263.572V263.601V263.63V263.66V263.689V263.719V263.748V263.778V263.808V263.838V263.868V263.898V263.929V263.959V263.99V264.02V264.051V264.082V264.112V264.143V264.174V264.206V264.237V264.268V264.3V264.331V264.363V264.395V264.426V264.458V264.49V264.522V264.555V264.587V264.619V264.652V264.684V264.717V264.75V264.783V264.816V264.849V264.882V264.915V264.948V264.982V265.015V265.049V265.082V265.116V265.15V265.184V265.218V265.252V265.286V265.321V265.355V265.389V265.424V265.459V265.493V265.528V265.563V265.598V265.633V265.668V265.704V265.739V265.774V265.81V265.846V265.881V265.917V265.953V265.989V266.025V266.061V266.097V266.133V266.17V266.206V266.243V266.279V266.316V266.353V266.39V266.427V266.464V266.501V266.538V266.575V266.613V266.65V266.688V266.725V266.763V266.801V266.838V266.876V266.914V266.952V266.991V267.029V267.067V267.105V267.144V267.182V267.221V267.26V267.299V267.337V267.376V267.415V267.454V267.494V267.533V267.572V267.612V267.651V267.691V267.73V267.77V267.81V267.849V267.889V267.929V267.969V268.009V268.05V268.09V268.13V268.171V268.211V268.252V268.292V268.333V268.374V268.415V268.456V268.497V268.538V268.579V268.62V268.661V268.703V268.744V268.785V268.827V268.869V268.91V268.952V268.994V269.036V269.078V269.12V269.162V269.204V269.246V269.289V269.331V269.373V269.416V269.458V269.501V269.544V269.586V269.629V269.672V269.715V269.758V269.801V269.844V269.887V269.931V269.974V270.017V270.061V270.104V270.148V270.192V270.235V270.279V270.323V270.367V270.411V270.455V270.499V270.543V270.587V270.631V270.676V270.72V270.764V270.809V270.853V270.898V270.943V270.987V271.032V271.077V271.122V271.167V271.212V271.257V271.302V271.347V271.393V271.438V271.483V271.528V271.574V271.62V271.665V271.711V271.756V271.802V271.848V271.894V271.94V271.986V272.032V272.078V272.124V272.17V272.216V272.262V272.309V272.355V272.401V272.448V272.494V272.541V272.588V272.634V272.681V272.728V272.775V272.821V272.868V272.915V272.962V273.009V273.057V273.104V273.151V273.198V273.246V273.293V273.34V273.388V273.435V273.483V273.53V273.578V273.626V273.673V273.721V273.769V273.817V273.865V273.913V273.961V274.009V274.057V274.105V274.153V274.201V274.25V274.298V274.346V274.395V274.443V274.491V274.54V274.588V274.637V274.686V274.734V274.783V274.832V274.881V274.929V274.978V275.027V275.076V275.125V275.174V275.223V275.272V275.322V275.371V275.42V275.469V275.518V275.568V275.617V275.667V275.716V275.766V275.815V275.865V275.914V275.964V276.014V276.063V276.113V276.163V276.213V276.262V276.312V276.362V276.412V276.462V276.512V276.562V276.612V276.662V276.712V276.763V276.813V276.863V276.913V276.964V277.014V277.064V277.115V277.165V277.215V277.266V277.316V277.367V277.418V277.468V277.519V277.569V277.62V277.671V277.722V277.772V277.823V277.874V277.925V277.976V278.026V278.077V278.128V278.179V278.23V278.281V278.332V278.384V278.435V278.486V278.537V278.588V278.639V278.69V278.742V278.793V278.844V278.896V278.947V278.998V279.05V279.101V279.153V279.204V279.255V279.307V279.358V279.41V279.462V279.513V279.565V279.616V279.668V279.72V279.771V279.823V279.875V279.926V279.978V280.03V280.082V280.134V280.185V280.237V280.289V280.341V280.393V280.445V280.497V280.549V280.6V280.653V280.705V280.756V280.809V280.861V280.913V280.965V281.017V281.069V281.121V281.173V281.225V281.277V281.329V281.382V281.434V281.486V281.538V281.59V281.643C103.282 285.481 106.011 289.017 109.853 291.976C113.237 294.582 117.249 296.553 120.238 297.694C120.682 297.863 121.172 297.863 121.617 297.694C124.605 296.553 128.618 294.582 132.002 291.976C135.843 289.017 138.572 285.481 138.572 281.643V281.59V281.538V281.486V281.434V281.382V281.33V281.277V281.225V281.173V281.121V281.069V281.017V280.965V280.913V280.861V280.809V280.757V280.705V280.653V280.601V280.549V280.497V280.445V280.393V280.341V280.289V280.237V280.185V280.134V280.082V280.03V279.978V279.927V279.875V279.823V279.771V279.72V279.668V279.616V279.565V279.513V279.462V279.41V279.359V279.307V279.256V279.204V279.153V279.101V279.05V278.998V278.947V278.896V278.844V278.793V278.742V278.691V278.639V278.588V278.537V278.486V278.435V278.384V278.332V278.282V278.23V278.18V278.128V278.078V278.027V277.976V277.925V277.874V277.823V277.772V277.722V277.671V277.62V277.57V277.519V277.468V277.418V277.367V277.317V277.266V277.216V277.165V277.115V277.064V277.014V276.964V276.913V276.863V276.813V276.763V276.712V276.662V276.612V276.562V276.512V276.462V276.412V276.362V276.312V276.262V276.213V276.163V276.113V276.063V276.014V275.964V275.914V275.865V275.815V275.766V275.716V275.667V275.617V275.568V275.519V275.469V275.42V275.371V275.322V275.273V275.223V275.174V275.125V275.076V275.027V274.978V274.93V274.881V274.832V274.783V274.735V274.686V274.637V274.589V274.54V274.492V274.443V274.395V274.346V274.298V274.25V274.201V274.153V274.105V274.057V274.009V273.961V273.913V273.865V273.817V273.769V273.721V273.674V273.626V273.578V273.53V273.483V273.435V273.388V273.34V273.293V273.246V273.198V273.151V273.104V273.057V273.01V272.962V272.916V272.869V272.822V272.775V272.728V272.681V272.634V272.588V272.541V272.495V272.448V272.402V272.355V272.309V272.263V272.216V272.17V272.124V272.078V272.032V271.986V271.94V271.894V271.848V271.802V271.756V271.711V271.665V271.62V271.574V271.529V271.483V271.438V271.393V271.347V271.302V271.257V271.212V271.167V271.122V271.077V271.032V270.988V270.943V270.898V270.854V270.809V270.765V270.72V270.676V270.632V270.587V270.543V270.499V270.455V270.411V270.367V270.323V270.279V270.235V270.192V270.148V270.105V270.061V270.018V269.974V269.931V269.888V269.844V269.801V269.758V269.715V269.672V269.629V269.587V269.544V269.501V269.458V269.416V269.373V269.331V269.289V269.246V269.204V269.162V269.12V269.078V269.036V268.994V268.952V268.91V268.869V268.827V268.786V268.744V268.703V268.661V268.62V268.579V268.538V268.497V268.456V268.415V268.374V268.333V268.293V268.252V268.211V268.171V268.13V268.09V268.05V268.01V267.969V267.929V267.889V267.85V267.81V267.77V267.73V267.691V267.651V267.612V267.572V267.533V267.494V267.455V267.415V267.376V267.338V267.299V267.26V267.221V267.183V267.144V267.106V267.067V267.029V266.991V266.953V266.914V266.876V266.839V266.801V266.763V266.725V266.688V266.65V266.613V266.575V266.538V266.501V266.464V266.427V266.39V266.353V266.316V266.28V266.243V266.206V266.17V266.134V266.097V266.061V266.025V265.989V265.953V265.917V265.881V265.846V265.81V265.775V265.739V265.704V265.669V265.633V265.598V265.563V265.528V265.494V265.459V265.424V265.39V265.355V265.321V265.286V265.252V265.218V265.184V265.15V265.116V265.083V265.049V265.015V264.982V264.948V264.915V264.882V264.849V264.816V264.783V264.75V264.717V264.684V264.652V264.619V264.587V264.555V264.523V264.49V264.458V264.427V264.395V264.363V264.331V264.3V264.268V264.237V264.206V264.175V264.144V264.113V264.082V264.051V264.02V263.99V263.959V263.929V263.899V263.868V263.838V263.808V263.778V263.749V263.719V263.689V263.66V263.63V263.601V263.572V263.543V263.514V263.485V263.456V263.427V263.399V263.37V263.342V263.314V263.286V263.257V263.23V263.202V263.174V263.146V263.119V263.091V263.064V263.037V263.009V262.982V262.956V262.929V262.902V262.875V262.849V262.822V262.796V262.77V262.744V262.718V262.692V262.666V262.641V262.615V262.59V262.564V262.539V262.514V262.489V262.464V262.439V262.415C138.572 262.404 138.564 262.396 138.554 262.395C136.193 262.161 132.986 261.649 129.831 260.757C127.222 260.019 124.521 258.987 122.37 257.551ZM120.926 300.57C120.764 300.579 120.598 300.557 120.435 300.501C117.195 299.384 112.348 297.143 108.284 294.013C104.268 290.921 100.711 286.719 100.711 281.643V281.59V281.538V281.486V281.434V281.382V281.329V281.277V281.225V281.173V281.121V281.069V281.017V280.965V280.913V280.861V280.809V280.756V280.705V280.653V280.6V280.549V280.497V280.445V280.393V280.341V280.289V280.237V280.185V280.134V280.082V280.03V279.978V279.926V279.875V279.823V279.771V279.72V279.668V279.616V279.565V279.513V279.462V279.41V279.358V279.307V279.255V279.204V279.153V279.101V279.05V278.998V278.947V278.896V278.844V278.793V278.742V278.69V278.639V278.588V278.537V278.486V278.435V278.384V278.332V278.281V278.23V278.179V278.128V278.077V278.026V277.976V277.925V277.874V277.823V277.772V277.722V277.671V277.62V277.569V277.519V277.468V277.418V277.367V277.316V277.266V277.215V277.165V277.115V277.064V277.014V276.964V276.913V276.863V276.813V276.763V276.712V276.662V276.612V276.562V276.512V276.462V276.412V276.362V276.312V276.262V276.213V276.163V276.113V276.063V276.014V275.964V275.914V275.865V275.815V275.766V275.716V275.667V275.617V275.568V275.518V275.469V275.42V275.371V275.322V275.272V275.223V275.174V275.125V275.076V275.027V274.978V274.929V274.881V274.832V274.783V274.734V274.686V274.637V274.588V274.54V274.491V274.443V274.395V274.346V274.298V274.25V274.201V274.153V274.105V274.057V274.009V273.961V273.913V273.865V273.817V273.769V273.721V273.673V273.626V273.578V273.53V273.483V273.435V273.388V273.34V273.293V273.246V273.198V273.151V273.104V273.057V273.009V272.962V272.915V272.868V272.821V272.775V272.728V272.681V272.634V272.588V272.541V272.494V272.448V272.401V272.355V272.309V272.262V272.216V272.17V272.124V272.078V272.032V271.986V271.94V271.894V271.848V271.802V271.756V271.711V271.665V271.62V271.574V271.528V271.483V271.438V271.393V271.347V271.302V271.257V271.212V271.167V271.122V271.077V271.032V270.987V270.943V270.898V270.853V270.809V270.764V270.72V270.676V270.631V270.587V270.543V270.499V270.455V270.411V270.367V270.323V270.279V270.235V270.192V270.148V270.104V270.061V270.017V269.974V269.931V269.887V269.844V269.801V269.758V269.715V269.672V269.629V269.586V269.544V269.501V269.458V269.416V269.373V269.331V269.289V269.246V269.204V269.162V269.12V269.078V269.036V268.994V268.952V268.91V268.869V268.827V268.785V268.744V268.703V268.661V268.62V268.579V268.538V268.497V268.456V268.415V268.374V268.333V268.292V268.252V268.211V268.171V268.13V268.09V268.05V268.009V267.969V267.929V267.889V267.849V267.81V267.77V267.73V267.691V267.651V267.612V267.572V267.533V267.494V267.454V267.415V267.376V267.337V267.299V267.26V267.221V267.182V267.144V267.105V267.067V267.029V266.991V266.952V266.914V266.876V266.838V266.801V266.763V266.725V266.688V266.65V266.613V266.575V266.538V266.501V266.464V266.427V266.39V266.353V266.316V266.279V266.243V266.206V266.17V266.133V266.097V266.061V266.025V265.989V265.953V265.917V265.881V265.846V265.81V265.774V265.739V265.704V265.668V265.633V265.598V265.563V265.528V265.493V265.459V265.424V265.389V265.355V265.321V265.286V265.252V265.218V265.184V265.15V265.116V265.082V265.049V265.015V264.982V264.948V264.915V264.882V264.849V264.816V264.783V264.75V264.717V264.684V264.652V264.619V264.587V264.555V264.522V264.49V264.458V264.426V264.395V264.363V264.331V264.3V264.268V264.237V264.206V264.174V264.143V264.112V264.082V264.051V264.02V263.99V263.959V263.929V263.898V263.868V263.838V263.808V263.778V263.748V263.719V263.689V263.66V263.63V263.601V263.572V263.543V263.514V263.485V263.456V263.427V263.399V263.37V263.342V263.314V263.285V263.257V263.229V263.202V263.174V263.146V263.119V263.091V263.064V263.036V263.009V262.982V262.955V262.929V262.902V262.875V262.849V262.822V262.796V262.77V262.744V262.718V262.692V262.666V262.64V262.615V262.589V262.564V262.539V262.514V262.489V262.464V262.439V262.414V262.39V262.365V262.341V262.317V262.293V262.269V262.245V262.221V262.197V262.174V262.15V262.127V262.104V262.081V262.058V262.035V262.012V261.989V261.967V261.944V261.922V261.9V261.878V261.856V261.834V261.812V261.79V261.769V261.747V261.726V261.705V261.684V261.663V261.642V261.621V261.601V261.58V261.56V261.54V261.52V261.5V261.48V261.46V261.44V261.421V261.401V261.382V261.363V261.344V261.325V261.306V261.288V261.269V261.251V261.232V261.214C100.711 260.537 101.236 259.976 101.911 259.931C104.152 259.781 107.783 259.283 111.323 258.282C114.92 257.265 118.167 255.797 119.894 253.859C120.165 253.554 120.55 253.409 120.928 253.43C121.306 253.41 121.689 253.555 121.96 253.859C123.687 255.797 126.934 257.265 130.531 258.282C134.071 259.284 137.702 259.782 139.943 259.931C140.618 259.976 141.143 260.537 141.143 261.214V261.232V261.251V261.269V261.288V261.306V261.325V261.344V261.363V261.382V261.402V261.421V261.441V261.46V261.48V261.5V261.52V261.54V261.56V261.581V261.601V261.622V261.642V261.663V261.684V261.705V261.726V261.748V261.769V261.791V261.812V261.834V261.856V261.878V261.9V261.922V261.944V261.967V261.989V262.012V262.035V262.058V262.081V262.104V262.127V262.15V262.174V262.197V262.221V262.245V262.269V262.293V262.317V262.341V262.366V262.39V262.415V262.439V262.464V262.489V262.514V262.539V262.564V262.59V262.615V262.641V262.666V262.692V262.718V262.744V262.77V262.796V262.822V262.849V262.875V262.902V262.929V262.956V262.982V263.009V263.037V263.064V263.091V263.119V263.146V263.174V263.202V263.23V263.257V263.286V263.314V263.342V263.37V263.399V263.427V263.456V263.485V263.514V263.543V263.572V263.601V263.63V263.66V263.689V263.719V263.749V263.778V263.808V263.838V263.868V263.899V263.929V263.959V263.99V264.02V264.051V264.082V264.113V264.144V264.175V264.206V264.237V264.268V264.3V264.331V264.363V264.395V264.427V264.458V264.49V264.523V264.555V264.587V264.619V264.652V264.684V264.717V264.75V264.783V264.816V264.849V264.882V264.915V264.948V264.982V265.015V265.049V265.083V265.116V265.15V265.184V265.218V265.252V265.286V265.321V265.355V265.39V265.424V265.459V265.494V265.528V265.563V265.598V265.633V265.669V265.704V265.739V265.775V265.81V265.846V265.881V265.917V265.953V265.989V266.025V266.061V266.097V266.134V266.17V266.206V266.243V266.28V266.316V266.353V266.39V266.427V266.464V266.501V266.538V266.575V266.613V266.65V266.688V266.725V266.763V266.801V266.839V266.876V266.914V266.953V266.991V267.029V267.067V267.106V267.144V267.183V267.221V267.26V267.299V267.338V267.376V267.415V267.455V267.494V267.533V267.572V267.612V267.651V267.691V267.73V267.77V267.81V267.85V267.889V267.929V267.969V268.01V268.05V268.09V268.13V268.171V268.211V268.252V268.293V268.333V268.374V268.415V268.456V268.497V268.538V268.579V268.62V268.661V268.703V268.744V268.786V268.827V268.869V268.91V268.952V268.994V269.036V269.078V269.12V269.162V269.204V269.246V269.289V269.331V269.373V269.416V269.458V269.501V269.544V269.587V269.629V269.672V269.715V269.758V269.801V269.844V269.888V269.931V269.974V270.018V270.061V270.105V270.148V270.192V270.235V270.279V270.323V270.367V270.411V270.455V270.499V270.543V270.587V270.632V270.676V270.72V270.765V270.809V270.854V270.898V270.943V270.988V271.032V271.077V271.122V271.167V271.212V271.257V271.302V271.347V271.393V271.438V271.483V271.529V271.574V271.62V271.665V271.711V271.756V271.802V271.848V271.894V271.94V271.986V272.032V272.078V272.124V272.17V272.216V272.263V272.309V272.355V272.402V272.448V272.495V272.541V272.588V272.634V272.681V272.728V272.775V272.822V272.869V272.916V272.962V273.01V273.057V273.104V273.151V273.198V273.246V273.293V273.34V273.388V273.435V273.483V273.53V273.578V273.626V273.674V273.721V273.769V273.817V273.865V273.913V273.961V274.009V274.057V274.105V274.153V274.201V274.25V274.298V274.346V274.395V274.443V274.492V274.54V274.589V274.637V274.686V274.735V274.783V274.832V274.881V274.93V274.978V275.027V275.076V275.125V275.174V275.223V275.273V275.322V275.371V275.42V275.469V275.519V275.568V275.617V275.667V275.716V275.766V275.815V275.865V275.914V275.964V276.014V276.063V276.113V276.163V276.213V276.262V276.312V276.362V276.412V276.462V276.512V276.562V276.612V276.662V276.712V276.763V276.813V276.863V276.913V276.964V277.014V277.064V277.115V277.165V277.216V277.266V277.317V277.367V277.418V277.468V277.519V277.57V277.62V277.671V277.722V277.772V277.823V277.874V277.925V277.976V278.027V278.078V278.128V278.18V278.23V278.282V278.332V278.384V278.435V278.486V278.537V278.588V278.639V278.691V278.742V278.793V278.844V278.896V278.947V278.998V279.05V279.101V279.153V279.204V279.256V279.307V279.359V279.41V279.462V279.513V279.565V279.616V279.668V279.72V279.771V279.823V279.875V279.927V279.978V280.03V280.082V280.134V280.185V280.237V280.289V280.341V280.393V280.445V280.497V280.549V280.601V280.653V280.705V280.757V280.809V280.861V280.913V280.965V281.017V281.069V281.121V281.173V281.225V281.277V281.33V281.382V281.434V281.486V281.538V281.59V281.643C141.143 286.719 137.586 290.921 133.57 294.013C129.506 297.143 124.659 299.384 121.419 300.501C121.256 300.558 121.088 300.579 120.926 300.57Z" fill="white"/>
<path d="M120.717 277C124.504 277 127.574 273.93 127.574 270.143C127.574 266.356 124.504 263.286 120.717 263.286C116.929 263.286 113.859 266.356 113.859 270.143C113.859 273.93 116.929 277 120.717 277Z" stroke="#157FD1" stroke-width="1.5"/>
<path d="M110.43 289C110.675 285.571 113.662 278.714 120.715 278.714C127.768 278.714 131.564 285.571 131.858 289" stroke="#157FD1" stroke-width="1.5" stroke-linecap="round" stroke-linejoin="round"/>
<path d="M100.903 317.469C101.691 317.469 102.4 317.684 103.032 318.113C103.663 318.536 104.174 319.145 104.565 319.939C104.962 320.727 105.206 321.655 105.297 322.723H108.911V316.16H110.747V333.699H108.911V324.227H105.317C105.252 325.346 105.024 326.323 104.633 327.156C104.243 327.99 103.725 328.631 103.081 329.08C102.436 329.529 101.71 329.754 100.903 329.754C100.03 329.754 99.259 329.503 98.5884 329.002C97.9179 328.494 97.3938 327.778 97.0162 326.854C96.6451 325.923 96.4628 324.839 96.4693 323.602C96.4628 322.371 96.6451 321.294 97.0162 320.369C97.3938 319.438 97.9179 318.722 98.5884 318.221C99.2655 317.719 100.037 317.469 100.903 317.469ZM100.903 319.129C100.376 319.129 99.9101 319.311 99.5064 319.676C99.1028 320.04 98.787 320.561 98.5591 321.238C98.3378 321.909 98.2271 322.697 98.2271 323.602C98.2271 324.513 98.3378 325.307 98.5591 325.984C98.787 326.661 99.1028 327.182 99.5064 327.547C99.9101 327.911 100.376 328.094 100.903 328.094C101.43 328.094 101.896 327.911 102.299 327.547C102.703 327.182 103.016 326.661 103.237 325.984C103.465 325.307 103.579 324.513 103.579 323.602C103.579 322.697 103.465 321.909 103.237 321.238C103.016 320.561 102.703 320.04 102.299 319.676C101.896 319.311 101.43 319.129 100.903 319.129ZM127.182 325.984H114.994V317.723H127.025V319.246H116.83V324.461H127.182V325.984ZM129.018 331.355H113.002V329.812H129.018V331.355ZM139.085 325.867H130.765V317.645H139.085V325.867ZM132.581 324.383H137.249V319.148H132.581V324.383ZM144.359 328.719H142.503V316.18H144.359V328.719ZM144.886 333.133H132.914V327.508H134.789V331.609H144.886V333.133Z" fill="white"/>
<path d="M310.286 677.446V651.821C310.286 648.922 307.984 646.571 305.143 646.571H270.858C268.017 646.571 265.715 648.922 265.715 651.821V686.821C265.715 689.721 268.017 692.071 270.858 692.071H295.96" stroke="white" stroke-linecap="round"/>
<path d="M278.895 669.189L284.409 674.818C285.078 675.502 286.164 675.502 286.833 674.818L298.44 662.969" stroke="#4694FF" stroke-width="1.5" stroke-linecap="round"/>
<path d="M508.838 683.336C504.839 683.651 495.919 684.28 494.073 676.732C492.699 671.113 496.522 667.976 499.543 666.712C500.143 666.461 500.608 665.958 500.786 665.332C502.098 660.721 506.395 653.143 515.298 653.143C523.525 653.143 527.367 657.303 528.684 660.274C529.024 661.042 529.74 661.624 530.574 661.727C534.462 662.208 540.214 664.685 540.214 672.014C540.214 682.393 529.14 683.336 526.372 683.336" stroke="white" stroke-width="1.5" stroke-linecap="round" stroke-linejoin="round"/>
<path d="M517.895 686.179V672.786" stroke="#157FD1" stroke-width="1.5" stroke-linecap="round" stroke-linejoin="round"/>
<path d="M512.535 675.464L516.749 671.953C517.411 671.401 518.373 671.401 519.036 671.953L523.249 675.464" stroke="#157FD1" stroke-width="1.5" stroke-linecap="round" stroke-linejoin="round"/>
<path d="M305 432V375H332.081C335.234 375 338.016 375.557 340.242 376.486C342.653 377.414 344.694 378.899 346.177 380.57C347.847 382.241 348.96 384.284 349.702 386.512C350.444 388.74 351 391.153 351 393.753C351 396.352 350.629 398.766 349.887 400.994C349.145 403.222 348.032 405.264 346.548 406.935C345.065 408.792 343.21 410.091 340.798 411.391C338.573 412.505 335.79 413.433 332.637 413.619L319.097 415.29V429.215L305 432ZM329.855 401.551C332.081 401.365 333.75 400.622 335.048 399.508C336.347 398.394 336.903 396.723 336.903 394.495C336.903 392.453 336.347 390.782 335.048 389.482C333.75 388.183 332.081 387.626 329.855 387.626H319.282V402.665L329.855 401.551Z" fill="#277CC0"/>
<path d="M305 437V381H319.215V424.867L341 422.254V437H305Z" fill="#277CC0"/>
<path d="M387.863 377H402V409.387C402 413.088 401.449 416.604 400.348 419.565C399.246 422.526 397.594 425.117 395.574 427.338C393.555 429.559 391.168 431.039 388.23 432.335C385.293 433.445 382.172 434 378.5 434C375.012 434 371.707 433.445 368.77 432.335C365.832 431.224 363.445 429.559 361.426 427.338C359.406 425.117 357.754 422.526 356.652 419.565C355.551 416.604 355 413.088 355 409.387V377H369.137V409.202C369.137 411.052 369.32 412.718 369.871 414.198C370.238 415.679 370.973 416.974 371.707 418.085C372.441 419.195 373.543 419.935 374.645 420.676C375.746 421.231 377.031 421.601 378.5 421.601C379.969 421.601 381.254 421.231 382.355 420.676C383.457 420.12 384.559 419.195 385.293 418.085C386.027 416.974 386.762 415.679 387.129 414.198C387.496 412.718 387.863 411.052 387.863 409.202V377Z" fill="#277CC0"/>
<path d="M422.83 434V389.44H407V377H453V389.626H437.17V431.03L422.83 434Z" fill="#277CC0"/>
<path d="M505 406.641C505 410.921 504.63 414.644 503.333 417.994C502.222 421.344 500.556 424.136 498.333 426.555C496.111 428.975 493.704 430.65 490.556 431.953C487.593 433.256 484.259 434 480.556 434C477.037 434 473.704 433.628 470.556 432.511C467.593 431.395 464.815 429.719 462.593 427.486C460.37 425.253 458.519 422.461 457.222 419.111C455.926 415.76 455.185 412.038 455.185 407.943L455 402.36C455 398.079 455.37 394.357 456.667 391.007C457.778 387.656 459.444 384.865 461.667 382.445C463.889 380.025 466.296 378.35 469.444 377.048C472.407 375.745 475.741 375 479.444 375C482.963 375 486.296 375.559 489.444 376.675C492.407 377.792 495.185 379.467 497.407 381.701C499.63 383.934 501.481 386.726 502.778 390.076C504.074 393.426 504.815 397.149 504.815 401.243L505 406.641ZM490.741 401.243C490.741 396.776 489.815 393.426 487.778 391.007C485.926 388.587 483.333 387.47 480 387.47C476.852 387.47 474.259 388.587 472.222 391.007C470.37 393.426 469.259 396.776 469.259 401.243V407.757C469.259 412.038 470.185 415.388 472.222 417.808C474.074 420.227 476.667 421.53 480 421.53C483.148 421.53 485.741 420.227 487.778 417.808C489.63 415.388 490.741 412.038 490.741 407.757V401.243Z" fill="#277CC0"/>
<path d="M709.302 517.429H672.695C671.955 517.429 671.355 518.028 671.355 518.768C671.355 519.508 671.955 520.107 672.695 520.107H709.302C710.042 520.107 710.641 519.508 710.641 518.768C710.641 518.028 710.042 517.429 709.302 517.429Z" fill="#4694FF"/>
<mask id="mask2_456_3892" style="mask-type:luminance" maskUnits="userSpaceOnUse" x="671" y="497" width="40" height="17">
<path d="M671.355 503.143C671.355 500.184 673.754 497.786 676.713 497.786H705.284C708.243 497.786 710.641 500.184 710.641 503.143V512.071C710.641 513.058 709.842 513.857 708.855 513.857H673.141C672.155 513.857 671.355 513.058 671.355 512.071V503.143Z" fill="white"/>
</mask>
<g mask="url(#mask2_456_3892)">
<path d="M671.355 503.143C671.355 500.184 673.754 497.786 676.713 497.786H705.284C708.243 497.786 710.641 500.184 710.641 503.143V512.071C710.641 513.058 709.842 513.857 708.855 513.857H673.141C672.155 513.857 671.355 513.058 671.355 512.071V503.143Z" stroke="white" stroke-width="3"/>
</g>
<path d="M685.39 491.969C685.902 494.198 686.191 495.78 686.343 496.901C686.475 497.879 687.29 498.679 688.277 498.679H693.515C694.501 498.679 695.305 497.879 695.383 496.896C695.51 495.297 695.803 493.095 696.402 491.01C697.503 487.176 700.807 483.342 699.706 478.549C698.605 473.756 689.794 469.922 684.288 475.673C679.271 480.914 684.162 486.627 685.39 491.969Z" stroke="white" stroke-width="1.5" stroke-linecap="round" stroke-linejoin="round"/>
<defs>
<clipPath id="clip0_456_3892">
<rect width="48" height="50" fill="white" transform="translate(95 476)"/>
</clipPath>
<clipPath id="clip1_456_3892">
<rect width="52" height="52" fill="white" transform="translate(663 251.857)"/>
</clipPath>
</defs>
</svg>
